<svg width="71" height="32" viewBox="0 0 355 160" fill="none" xmlns="http://www.w3.org/2000/svg"><path d="M50.24 46.008H40.096c-.652 0-1.187.536-1.187 1.189l.234 37.944c0 .243-.31.327-.443.125L14.032 46.937a2.017 2.017 0 00-1.698-.929H1.187c-.652 0-1.187.536-1.187 1.189v59.059c0 .652.535 1.188 1.187 1.188h10.144c.652 0 1.187-.536 1.187-1.188V68.68c0-.235.31-.327.435-.126l24.434 37.961a2.016 2.016 0 001.698.929H50.23c.653 0 1.188-.536 1.188-1.188v-59.06a1.18 1.18 0 00-1.18-1.188zm170.361 23.65c-3.119-3.925-8.153-5.916-13.605-5.916-1.037 0-2.609.192-3.755.552-1.179.368-2.952 1.347-4.013 2.377-.151.15-.41.033-.41-.176v-.762c0-.652-.535-1.188-1.188-1.188h-10.009c-.653 0-1.187.536-1.187 1.188v40.522c0 .653.534 1.189 1.187 1.189h10.018c.652 0 1.187-.536 1.187-1.189l.042-24.947c0-3.85 3.169-6.126 6.773-6.126 4.365 0 6.581 3.104 6.815 6.536l.009 24.537c0 .653.535 1.189 1.187 1.189h10.01c.652 0 1.187-.536 1.187-1.189V85.266c-.008-7.18-1.288-11.884-4.248-15.608zm-42.068-5.113h-9.993c-.66 0-1.196.535-1.196 1.197v.736c0 .201-.225.318-.393.201-2.701-1.95-6.029-3.013-9.232-3.013-5.544 0-10.477 1.892-14.675 5.632-4.867 4.37-7.334 9.968-7.334 16.654 0 5.8 1.907 10.855 5.67 15.039 4.365 4.871 9.859 7.34 16.339 7.34 3.22 0 6.322-1.038 9.258-2.804a.24.24 0 01.367.21v.51c0 .661.536 1.197 1.196 1.197h9.993c.66 0 1.196-.536 1.196-1.197V65.742c0-.662-.536-1.197-1.196-1.197zm-20.638 32.312c-2.684 0-4.9-.912-6.781-2.803-1.915-1.917-2.886-4.645-2.886-8.102 0-2.954.72-5.38 2.141-7.197 1.924-2.444 4.332-3.623 7.359-3.623 2.876 0 5.134.895 6.899 2.745 1.898 1.975 2.859 4.678 2.859 8.033 0 2.963-.71 5.424-2.107 7.298-1.873 2.452-4.315 3.65-7.484 3.65zm-57.558-32.312h-9.993c-.66 0-1.195.535-1.195 1.197v.736a.249.249 0 01-.394.201c-2.7-1.95-6.029-3.013-9.231-3.013-5.544 0-10.478 1.892-14.676 5.632-4.867 4.37-7.333 9.968-7.333 16.654 0 5.8 1.906 10.855 5.67 15.039 4.364 4.871 9.858 7.34 16.339 7.34 3.22 0 6.322-1.038 9.256-2.804a.24.24 0 01.369.21v.51c0 .661.535 1.197 1.195 1.197h9.993c.661 0 1.196-.536 1.196-1.197V65.742a1.19 1.19 0 00-1.196-1.197zm-20.63 32.312c-2.683 0-4.9-.912-6.781-2.803-1.915-1.917-2.885-4.645-2.885-8.102 0-2.954.719-5.38 2.14-7.197 1.924-2.444 4.332-3.623 7.36-3.623 2.876 0 5.134.895 6.898 2.745 1.898 1.975 2.86 4.678 2.86 8.033 0 2.963-.71 5.424-2.107 7.298-1.873 2.452-4.323 3.65-7.484 3.65zm212.351-32.312h-9.993c-.66 0-1.196.535-1.196 1.197v.736c0 .201-.226.318-.393.201-2.701-1.95-6.029-3.013-9.232-3.013-5.544 0-10.478 1.892-14.675 5.632-4.867 4.37-7.334 9.968-7.334 16.654 0 5.8 1.907 10.855 5.67 15.039 4.365 4.871 9.859 7.34 16.339 7.34 3.22 0 6.322-1.038 9.257-2.804a.24.24 0 01.368.21v.51c0 .661.536 1.197 1.196 1.197h9.993c.66 0 1.196-.536 1.196-1.197V65.742c0-.662-.536-1.197-1.196-1.197zM271.42 96.857c-2.684 0-4.9-.912-6.782-2.803-1.915-1.917-2.885-4.645-2.885-8.102 0-2.954.719-5.38 2.141-7.197 1.923-2.444 4.331-3.623 7.359-3.623 2.876 0 5.134.895 6.899 2.745 1.898 1.975 2.859 4.678 2.859 8.033 0 2.963-.71 5.424-2.107 7.298-1.873 2.452-4.323 3.65-7.484 3.65zM129.119 64.713c-2.224 0-4.825 1.013-6.338 2.21a.242.242 0 01-.393-.193v-1.005c0-.652-.536-1.188-1.188-1.188h-10.009c-.652 0-1.188.536-1.188 1.188v40.522c0 .653.536 1.189 1.188 1.189H121.2c.652 0 1.188-.536 1.188-1.189V86.731c0-4.167.518-7.054 1.521-8.57.92-1.347 2.701-2.033 5.294-2.033.694 0 1.839.008 3.545.176.661.058 1.238-.561 1.213-1.239v-8.921c0-.603-.452-1.113-1.054-1.18-1.471-.167-2.751-.251-3.788-.251zm114.58-16.512c-1.48-1.423-3.236-2.142-5.226-2.142-2.058 0-3.855.703-5.36 2.1-1.472 1.423-2.217 3.172-2.217 5.214 0 2.092.745 3.883 2.208 5.29 1.43 1.43 3.211 2.158 5.285 2.158 2.049 0 3.838-.72 5.327-2.159 1.43-1.44 2.157-3.197 2.157-5.239 0-1.967-.719-3.707-2.141-5.189l-.033-.033z" fill="#FE5000"/><path d="M243.372 64.554h-10.01c-.652 0-1.187.535-1.187 1.188v42.564c-.042 1.774-.828 7.591-8.914 8.151a1.19 1.19 0 00-1.096 1.197v9.691a1.192 1.192 0 001.188 1.155h.075c2.015-.101 20.119-1.481 21.089-18.981a1.14 1.14 0 00.042-.301V65.75c0-.66-.535-1.196-1.187-1.196zm72.782-17.5a2.323 2.323 0 00-1.898-1.046h-11.59c-.936 0-1.496 1.038-.995 1.825l18.514 28.63a.482.482 0 010 .518l-18.514 28.639c-.51.786.059 1.824.987 1.824h11.64a2.18 2.18 0 001.831-.996l18.08-28.103a3.005 3.005 0 000-3.247l-18.055-28.044z" fill="#FE5000"/><path d="M337.922 80.865a.485.485 0 00-.812 0l-6.045 9.39a3.002 3.002 0 000 3.247l8.203 12.737a2.617 2.617 0 002.199 1.205h11.398c.935 0 1.506-1.038.994-1.824l-15.937-24.755zm1.356-33.66l-8.204 12.738a3.005 3.005 0 000 3.247l6.046 9.398c.184.293.61.293.794 0l15.963-24.797c.495-.77-.058-1.791-.969-1.791h-11.431a2.633 2.633 0 00-2.199 1.205z" fill="#50007F"/></svg>